# xmcd
#
# Track frame offsets: 
#        150
#        19120
#        39192
#        70085
#        102252
#        123327
#        143785
#        184317
#
# Disc length: 2653 seconds
#
# Revision: 1
# Processed by: cddbd v1.5.2PL0 Copyright (c) Steve Scherf et al.
# Submitted via: ExactAudioCopy v1.1
#
DISCID=660a5b08
DTITLE=浅川マキ(vo) つのだひろ(dr) 向井滋春(tb) 近藤俊則(tr) 坂本龍一(or) 杉浦芳博(g) 萩原信義(g) 角
DTITLE=田順(g) 白井幹夫(p) 吉田建(b) - 灯ともし頃 MAKI VII
DYEAR=1976
DGENRE=Blues
TTITLE0=夕凪のとき
TTITLE1=あなたなしで
TTITLE2=それはスポットライトではない
TTITLE3=夜
TTITLE4=ジャスト・アナザー・ホンキー
TTITLE5=思いがけない夜に
TTITLE6=センチメンタル・ジャーニー
TTITLE7=何処へ行くの
EXTD=
EXTT0=
EXTT1=
EXTT2=
EXTT3=
EXTT4=
EXTT5=
EXTT6=
EXTT7=
PLAYORDER=
